<svg viewBox="570 -10 760 910" width="512" height="512" version="1.1" xmlns="http://www.w3.org/2000/svg">
<style>.vertex { font-family: Consolas } .edge { font-family: Consolas } .text { font-family: Consolas }</style>
    <path d="M 600 330L 660 20" fill="none" stroke="#000000" stroke-width="2"></path>
    <path d="M 600 330L 780 490" fill="none" stroke="#000000" stroke-width="2"></path>
    <path d="M 600 330L 770 270" fill="none" stroke="#000000" stroke-width="2"></path>
    <path d="M 800 130L 660 20" fill="none" stroke="#000000" stroke-width="2"></path>
    <path d="M 800 130L 770 270" fill="none" stroke="#000000" stroke-width="2"></path>
    <path d="M 770 270L 930 110" fill="none" stroke="#000000" stroke-width="2"></path>
    <path d="M 770 270L 660 20" fill="none" stroke="#000000" stroke-width="2"></path>
    <path d="M 770 270L 780 490" fill="none" stroke="#000000" stroke-width="2"></path>
    <path d="M 770 270L 980 360" fill="none" stroke="#000000" stroke-width="2"></path>
    <path d="M 660 20L 930 110" fill="none" stroke="#000000" stroke-width="2"></path>
    <path d="M 660 20L 1300 60" fill="none" stroke="#000000" stroke-width="2"></path>
    <path d="M 780 490L 720 700" fill="none" stroke="#000000" stroke-width="2"></path>
    <path d="M 780 490L 910 680" fill="none" stroke="#000000" stroke-width="2"></path>
    <path d="M 780 490L 990 520" fill="none" stroke="#000000" stroke-width="2"></path>
    <path d="M 780 490L 980 360" fill="none" stroke="#000000" stroke-width="2"></path>
    <path d="M 980 360L 1220 540" fill="none" stroke="#000000" stroke-width="2"></path>
    <path d="M 980 360L 1150 300" fill="none" stroke="#000000" stroke-width="2"></path>
    <path d="M 980 360L 1090 130" fill="none" stroke="#000000" stroke-width="2"></path>
    <path d="M 980 360L 930 110" fill="none" stroke="#000000" stroke-width="2"></path>
    <path d="M 980 360L 990 520" fill="none" stroke="#000000" stroke-width="2"></path>
    <path d="M 930 110L 1090 130" fill="none" stroke="#000000" stroke-width="2"></path>
    <path d="M 990 520L 1220 540" fill="none" stroke="#000000" stroke-width="2"></path>
    <path d="M 990 520L 910 680" fill="none" stroke="#000000" stroke-width="2"></path>
    <path d="M 1090 130L 1150 300" fill="none" stroke="#000000" stroke-width="2"></path>
    <path d="M 1090 130L 1300 60" fill="none" stroke="#000000" stroke-width="2"></path>
    <path d="M 910 680L 720 700" fill="none" stroke="#000000" stroke-width="2"></path>
    <path d="M 910 680L 840 870" fill="none" stroke="#000000" stroke-width="2"></path>
    <path d="M 910 680L 1220 540" fill="none" stroke="#000000" stroke-width="2"></path>
    <path d="M 1150 300L 1220 540" fill="none" stroke="#000000" stroke-width="2"></path>
    <path d="M 1150 300L 1300 60" fill="none" stroke="#000000" stroke-width="2"></path>
    <path d="M 1220 540L 1300 60" fill="none" stroke="#000000" stroke-width="2"></path>
    <path d="M 840 870L 720 700" fill="none" stroke="#000000" stroke-width="2"></path>
    <circle cx="1150" cy="300" r="20" fill="#ffffff" stroke="#000000" stroke-width="1.5"/>
    <text class="vertex" x="1150" y="300" dominant-baseline="middle" text-anchor="middle" fill="#000000" font-size="18px">1</text>
    <circle cx="780" cy="490" r="20" fill="#ffffff" stroke="#000000" stroke-width="1.5"/>
    <text class="vertex" x="780" y="490" dominant-baseline="middle" text-anchor="middle" fill="#000000" font-size="18px">2</text>
    <circle cx="840" cy="870" r="20" fill="#ffffff" stroke="#000000" stroke-width="1.5"/>
    <text class="vertex" x="840" y="870" dominant-baseline="middle" text-anchor="middle" fill="#000000" font-size="18px">3</text>
    <circle cx="980" cy="360" r="20" fill="#ffffff" stroke="#000000" stroke-width="1.5"/>
    <text class="vertex" x="980" y="360" dominant-baseline="middle" text-anchor="middle" fill="#000000" font-size="18px">4</text>
    <circle cx="910" cy="680" r="20" fill="#ffffff" stroke="#000000" stroke-width="1.5"/>
    <text class="vertex" x="910" y="680" dominant-baseline="middle" text-anchor="middle" fill="#000000" font-size="18px">5</text>
    <circle cx="1300" cy="60" r="20" fill="#ffffff" stroke="#000000" stroke-width="1.5"/>
    <text class="vertex" x="1300" y="60" dominant-baseline="middle" text-anchor="middle" fill="#000000" font-size="18px">6</text>
    <circle cx="600" cy="330" r="20" fill="#ffffff" stroke="#000000" stroke-width="1.5"/>
    <text class="vertex" x="600" y="330" dominant-baseline="middle" text-anchor="middle" fill="#000000" font-size="18px">7</text>
    <circle cx="990" cy="520" r="20" fill="#ffffff" stroke="#000000" stroke-width="1.5"/>
    <text class="vertex" x="990" y="520" dominant-baseline="middle" text-anchor="middle" fill="#000000" font-size="18px">8</text>
    <circle cx="720" cy="700" r="20" fill="#ffffff" stroke="#000000" stroke-width="1.5"/>
    <text class="vertex" x="720" y="700" dominant-baseline="middle" text-anchor="middle" fill="#000000" font-size="18px">9</text>
    <circle cx="1220" cy="540" r="20" fill="#ffffff" stroke="#000000" stroke-width="1.5"/>
    <text class="vertex" x="1220" y="540" dominant-baseline="middle" text-anchor="middle" fill="#000000" font-size="18px">10</text>
    <circle cx="660" cy="20" r="20" fill="#ffffff" stroke="#000000" stroke-width="1.5"/>
    <text class="vertex" x="660" y="20" dominant-baseline="middle" text-anchor="middle" fill="#000000" font-size="18px">11</text>
    <circle cx="800" cy="130" r="20" fill="#ffffff" stroke="#000000" stroke-width="1.5"/>
    <text class="vertex" x="800" y="130" dominant-baseline="middle" text-anchor="middle" fill="#000000" font-size="18px">12</text>
    <circle cx="930" cy="110" r="20" fill="#ffffff" stroke="#000000" stroke-width="1.5"/>
    <text class="vertex" x="930" y="110" dominant-baseline="middle" text-anchor="middle" fill="#000000" font-size="18px">13</text>
    <circle cx="770" cy="270" r="20" fill="#ffffff" stroke="#000000" stroke-width="1.5"/>
    <text class="vertex" x="770" y="270" dominant-baseline="middle" text-anchor="middle" fill="#000000" font-size="18px">14</text>
    <circle cx="1090" cy="130" r="20" fill="#ffffff" stroke="#000000" stroke-width="1.5"/>
    <text class="vertex" x="1090" y="130" dominant-baseline="middle" text-anchor="middle" fill="#000000" font-size="18px">15</text>
</svg>